 <svg
        width="210"
        height="360"
        viewBox="0 0 210 360"
        fill="none"
        xmlns="http://www.w3.org/2000/svg"
      >
        <path
          d="M190.71 352.894C189.85 355.785 187.171 357.894 184 357.894H28C24.829 357.894 22.1504 355.785 21.2899 352.894H190.71Z"
          fill="#A9ABAC"
          fillOpacity="0.25"
          stroke="#A3A3A3"
          strokeWidth="4"
        />
        <path
          d="M102.5 82H102.518L102.535 81.9997L131.035 81.4997L131.081 81.4989L131.127 81.4959L154.627 79.9959L154.716 79.9903L154.804 79.9767L166.711 78.1449C167.57 78.0127 168.277 77.5291 168.721 76.8698L204.939 116.791C206.909 118.963 208 121.79 208 124.722V335.894C208 345.835 199.941 353.894 190 353.894H20C10.0589 353.894 2 345.835 2 335.894V123.975C2 121.535 2.92235 119.184 4.58217 117.395L41.9561 77.1147C42.3809 77.6418 42.9968 78.023 43.7337 78.1364L49.1959 78.9767L49.2239 78.981L49.2519 78.9846L57.2519 79.9846L57.2854 79.9887L57.3189 79.9918L62.8189 80.4918L62.8507 80.4947L62.8826 80.4965L71.3752 80.9961L71.3826 80.9965L87.3752 81.9961L87.4376 82H87.5H102.5Z"
          fill="current"
          fillOpacity="0.5"
          stroke="#A3A3A3"
          strokeWidth="4"
        />
        <mask id="path-3-inside-1_70_1994" fill="white">
          <path
            fillRule="evenodd"
            clipRule="evenodd"
            d="M169.73 70.4451C169.909 70.2636 170 70.0798 170 69.894C170 69.3709 169.275 68.8634 167.912 68.3796C167.444 68.1248 166.92 67.9605 166.363 67.9103C157.49 65.5714 133.367 63.894 105 63.894C76.6327 63.894 52.5096 65.5714 43.6365 67.9103C43.0797 67.9605 42.5557 68.1248 42.0882 68.3796C40.7253 68.8634 40 69.3709 40 69.894C40 70.0798 40.0915 70.2636 40.2705 70.4451C40.0958 70.8944 40 71.383 40 71.894V75.894C40 76.4051 40.0958 76.8937 40.2705 77.343C40.0915 77.5244 40 77.7083 40 77.894C40 78.4172 40.7253 78.9247 42.0882 79.4085C42.5557 79.6633 43.0797 79.8276 43.6365 79.8778C52.5096 82.2166 76.6327 83.894 105 83.894C133.367 83.894 157.49 82.2166 166.363 79.8778C166.92 79.8276 167.444 79.6633 167.912 79.4085C169.275 78.9247 170 78.4172 170 77.894C170 77.7083 169.909 77.5244 169.73 77.343C169.904 76.8937 170 76.4051 170 75.894V71.894C170 71.383 169.904 70.8944 169.73 70.4451Z"
          />
        </mask>
        <path
          fillRule="evenodd"
          clipRule="evenodd"
          d="M169.73 70.4451C169.909 70.2636 170 70.0798 170 69.894C170 69.3709 169.275 68.8634 167.912 68.3796C167.444 68.1248 166.92 67.9605 166.363 67.9103C157.49 65.5714 133.367 63.894 105 63.894C76.6327 63.894 52.5096 65.5714 43.6365 67.9103C43.0797 67.9605 42.5557 68.1248 42.0882 68.3796C40.7253 68.8634 40 69.3709 40 69.894C40 70.0798 40.0915 70.2636 40.2705 70.4451C40.0958 70.8944 40 71.383 40 71.894V75.894C40 76.4051 40.0958 76.8937 40.2705 77.343C40.0915 77.5244 40 77.7083 40 77.894C40 78.4172 40.7253 78.9247 42.0882 79.4085C42.5557 79.6633 43.0797 79.8276 43.6365 79.8778C52.5096 82.2166 76.6327 83.894 105 83.894C133.367 83.894 157.49 82.2166 166.363 79.8778C166.92 79.8276 167.444 79.6633 167.912 79.4085C169.275 78.9247 170 78.4172 170 77.894C170 77.7083 169.909 77.5244 169.73 77.343C169.904 76.8937 170 76.4051 170 75.894V71.894C170 71.383 169.904 70.8944 169.73 70.4451Z"
          fill="current"
          fillOpacity="0.5"
        />
        <path
          d="M169.73 70.4451L166.882 67.6361L165.063 69.4802L166.001 71.8946L169.73 70.4451ZM167.912 68.3796L165.997 71.8917L166.275 72.0432L166.574 72.1492L167.912 68.3796ZM166.363 67.9103L165.344 71.7782L165.669 71.864L166.005 71.8942L166.363 67.9103ZM43.6365 67.9103L43.9954 71.8942L44.3306 71.864L44.6561 71.7782L43.6365 67.9103ZM42.0882 68.3796L43.4263 72.1492L43.7247 72.0432L44.0028 71.8917L42.0882 68.3796ZM40.2705 70.4451L43.9986 71.8946L44.9373 69.4802L43.1181 67.636L40.2705 70.4451ZM40.2705 77.343L43.1181 80.1521L44.9373 78.3079L43.9986 75.8935L40.2705 77.343ZM42.0882 79.4085L44.0028 75.8964L43.7247 75.7448L43.4263 75.6389L42.0882 79.4085ZM43.6365 79.8778L44.6561 76.0099L44.3306 75.9241L43.9954 75.8939L43.6365 79.8778ZM166.363 79.8778L166.005 75.8939L165.669 75.9241L165.344 76.0099L166.363 79.8778ZM167.912 79.4085L166.574 75.6389L166.275 75.7448L165.997 75.8964L167.912 79.4085ZM169.73 77.343L166.001 75.8935L165.063 78.3079L166.882 80.152L169.73 77.343ZM166 69.894C166 68.6674 166.622 67.8993 166.882 67.6361L172.577 73.2542C173.195 72.628 174 71.4923 174 69.894H166ZM166.574 72.1492C167.114 72.341 167.228 72.4391 167.133 72.3703C167.075 72.3292 166.831 72.1481 166.579 71.7849C166.305 71.3905 166 70.74 166 69.894H174C174 67.6544 172.471 66.3552 171.801 65.8738C171.002 65.2995 170.072 64.902 169.25 64.61L166.574 72.1492ZM169.826 64.8675C168.889 64.3565 167.837 64.0268 166.722 63.9265L166.005 71.8942C166.006 71.8943 166.004 71.8942 166.002 71.8934C165.999 71.8927 165.998 71.892 165.997 71.8917L169.826 64.8675ZM105 67.894C119.111 67.894 132.144 68.3114 142.726 69.0163C153.414 69.7281 161.317 70.7168 165.344 71.7782L167.383 64.0425C162.537 62.765 153.942 61.7455 143.258 61.0339C132.469 60.3153 119.256 59.894 105 59.894V67.894ZM44.6561 71.7782C48.6827 70.7168 56.5862 69.7281 67.2738 69.0163C77.8562 68.3114 90.8887 67.894 105 67.894V59.894C90.744 59.894 77.5313 60.3153 66.7421 61.0339C56.058 61.7455 47.4634 62.765 42.617 64.0425L44.6561 71.7782ZM43.2777 63.9265C42.1633 64.0268 41.1112 64.3565 40.1737 64.8675L44.0028 71.8917C44.0022 71.892 44.0006 71.8927 43.9984 71.8934C43.9959 71.8942 43.9945 71.8943 43.9954 71.8942L43.2777 63.9265ZM44 69.894C44 70.74 43.6947 71.3905 43.4211 71.7849C43.1691 72.1481 42.9246 72.3291 42.8673 72.3703C42.7716 72.4391 42.8859 72.341 43.4263 72.1492L40.7502 64.61C39.9277 64.902 38.9979 65.2995 38.1987 65.8738C37.5288 66.3552 36 67.6544 36 69.894H44ZM43.1181 67.636C43.3778 67.8993 44 68.6674 44 69.894H36C36 71.4923 36.8051 72.628 37.4229 73.2542L43.1181 67.636ZM36.5423 68.9957C36.1909 69.8997 36 70.8793 36 71.894H44C44 71.8891 44.0004 71.8879 44.0001 71.8895C43.9999 71.8909 43.9993 71.8928 43.9986 71.8946L36.5423 68.9957ZM36 71.894V75.894H44V71.894H36ZM36 75.894C36 76.9088 36.1909 77.8884 36.5423 78.7924L43.9986 75.8935C43.9993 75.8953 43.9999 75.8972 44.0001 75.8986C44.0004 75.9001 44 75.899 44 75.894H36ZM37.4229 74.5339C36.8052 75.1601 36 76.2958 36 77.894H44C44 79.1207 43.3778 79.8888 43.1181 80.1521L37.4229 74.5339ZM36 77.894C36 80.1337 37.5288 81.4328 38.1987 81.9143C38.9979 82.4885 39.9277 82.8861 40.7502 83.178L43.4263 75.6389C42.8859 75.4471 42.7716 75.349 42.8673 75.4178C42.9246 75.4589 43.1691 75.64 43.4211 76.0032C43.6947 76.3976 44 77.0481 44 77.894H36ZM40.1737 82.9205C41.1112 83.4316 42.1633 83.7612 43.2777 83.8616L43.9954 75.8939C43.9945 75.8938 43.9959 75.8939 43.9984 75.8947C44.0006 75.8953 44.0022 75.8961 44.0028 75.8964L40.1737 82.9205ZM42.617 83.7456C47.4634 85.0231 56.058 86.0425 66.7421 86.7541C77.5313 87.4727 90.744 87.894 105 87.894V79.894C90.8887 79.894 77.8562 79.4766 67.2738 78.7718C56.5862 78.06 48.6827 77.0713 44.6561 76.0099L42.617 83.7456ZM105 87.894C119.256 87.894 132.469 87.4727 143.258 86.7541C153.942 86.0425 162.537 85.0231 167.383 83.7456L165.344 76.0099C161.317 77.0713 153.414 78.06 142.726 78.7718C132.144 79.4767 119.111 79.894 105 79.894V87.894ZM166.722 83.8616C167.837 83.7613 168.889 83.4316 169.826 82.9205L165.997 75.8964C165.998 75.8961 165.999 75.8953 166.002 75.8947C166.004 75.8939 166.006 75.8938 166.005 75.8939L166.722 83.8616ZM169.25 83.178C170.072 82.8861 171.002 82.4886 171.801 81.9143C172.471 81.4328 174 80.1337 174 77.894H166C166 77.0481 166.305 76.3977 166.579 76.0032C166.831 75.64 167.075 75.4589 167.133 75.4178C167.228 75.349 167.114 75.4471 166.574 75.6389L169.25 83.178ZM174 77.894C174 76.2958 173.195 75.1601 172.577 74.5339L166.882 80.152C166.622 79.8888 166 79.1207 166 77.894H174ZM173.458 78.7924C173.809 77.8884 174 76.9088 174 75.894H166C166 75.899 166 75.9002 166 75.8986C166 75.8972 166.001 75.8953 166.001 75.8935L173.458 78.7924ZM174 75.894V71.894H166V75.894H174ZM174 71.894C174 70.8793 173.809 69.8997 173.458 68.9957L166.001 71.8946C166.001 71.8928 166 71.8909 166 71.8895C166 71.8879 166 71.8891 166 71.894H174Z"
          fill="#A3A3A3"
          mask="url(#path-3-inside-1_70_1994)"
        />
        <path
          d="M166.991 31.9731C167.946 32.5971 168.298 33.4256 168.686 34.8682C168.682 34.9244 168.637 35.2012 168.187 35.7767C167.597 36.5306 166.552 37.4739 164.977 38.5774C161.848 40.7701 157.034 43.3164 150.834 46.0461C138.461 51.4927 120.895 57.5266 101.08 62.8362C81.2641 68.1458 63.0349 71.703 49.5965 73.1724C42.8617 73.9089 37.42 74.1104 33.6134 73.7762C31.6977 73.608 30.3211 73.3137 29.4336 72.9555C28.7562 72.682 28.5787 72.4648 28.5469 72.4183C28.5271 72.3448 28.5079 72.2733 28.4893 72.2038C28.0587 70.6013 27.907 70.0365 28.2081 69.3284C28.5556 68.511 29.7528 67.119 33.8388 65.0218C41.8906 60.8891 59.3531 54.8741 96.1936 44.5035C131.295 34.6224 149.409 31.111 158.904 30.774C163.676 30.6047 165.898 31.2592 166.991 31.9731Z"
          fill="#EAEAEA"
          stroke="#A3A3A3"
          strokeWidth="4"
        />
        <mask id="path-6-inside-2_70_1994" fill="white">
          <path d="M20.882 53.3115C20.3102 51.1776 21.5765 48.9842 23.7104 48.4125L160.872 11.6602C163.006 11.0884 165.199 12.3547 165.771 14.4886L170.43 31.8753C171.001 34.0091 169.735 36.2025 167.601 36.7742L30.4397 73.5265C28.3058 74.0983 26.1125 72.832 25.5407 70.6981L20.882 53.3115Z" />
        </mask>
        <path
          d="M20.882 53.3115C20.3102 51.1776 21.5765 48.9842 23.7104 48.4125L160.872 11.6602C163.006 11.0884 165.199 12.3547 165.771 14.4886L170.43 31.8753C171.001 34.0091 169.735 36.2025 167.601 36.7742L30.4397 73.5265C28.3058 74.0983 26.1125 72.832 25.5407 70.6981L20.882 53.3115Z"
          fill="#EAEAEA"
        />
        <path
          d="M19.8467 49.4478L164.736 10.6249L19.8467 49.4478ZM171.465 35.739L26.576 74.5618L171.465 35.739ZM30.4397 73.5265C26.1719 74.6701 21.7853 72.1374 20.6417 67.8697L18.0535 58.2104C16.91 53.9427 19.4427 49.556 23.7104 48.4125C23.7104 48.4125 24.1739 50.1423 24.7457 52.2762L29.4044 69.6628C29.9762 71.7967 30.4397 73.5265 30.4397 73.5265ZM160.872 11.6602C165.14 10.5166 169.526 13.0493 170.67 17.317L173.258 26.9763C174.402 31.244 171.869 35.6307 167.601 36.7742C167.601 36.7742 167.138 35.0444 166.566 32.9105L161.907 15.5239C161.335 13.39 160.872 11.6602 160.872 11.6602Z"
          fill="#A3A3A3"
          mask="url(#path-6-inside-2_70_1994)"
        />
        <path
          d="M163.451 13.5575C163.483 13.6759 163.528 14.0868 162.951 14.9536C162.381 15.8096 161.362 16.8572 159.817 18.0662C156.742 20.4735 151.969 23.2253 145.783 26.1364C133.443 31.9446 115.841 38.2202 95.9149 43.5595C75.9885 48.8988 57.6075 52.2646 44.016 53.405C37.2037 53.9765 31.6943 53.9799 27.8273 53.4328C25.8852 53.158 24.479 52.7602 23.5573 52.304C22.624 51.842 22.4576 51.4635 22.4259 51.3451C22.3942 51.2267 22.349 50.8158 22.9263 49.949C23.4964 49.0931 24.5153 48.0454 26.0598 46.8364C29.1352 44.4291 33.9082 41.6774 40.0936 38.7662C52.4343 32.958 70.0356 26.6825 89.9621 21.3432C109.889 16.0039 128.27 12.6381 141.861 11.4977C148.673 10.9261 154.183 10.9227 158.05 11.4699C159.992 11.7446 161.398 12.1424 162.32 12.5987C163.253 13.0607 163.419 13.4391 163.451 13.5575Z"
          fill="#EAEAEA"
          stroke="#A3A3A3"
          strokeWidth="4"
        />
        <path
          d="M167.972 35.6714C167.352 36.3455 166.448 37.1316 165.228 38.016C162.094 40.2866 157.267 42.9236 151.045 45.7413C138.629 51.3639 120.985 57.5601 101.055 62.9002C81.1256 68.2403 62.7679 71.6909 49.2253 73.024C42.4384 73.692 36.951 73.8188 33.1099 73.4174C32.1267 73.3146 31.283 73.1802 30.5726 73.0224C31.7015 73.1053 33.0419 73.1718 34.5914 73.1903C44.3174 73.3065 63.4866 71.6755 100.732 61.6954C137.08 51.9559 154.508 43.7789 163.109 38.7579C165.222 37.5245 166.793 36.4866 167.972 35.6714ZM27.6517 70.8159C27.6518 70.816 27.652 70.8171 27.6523 70.8194C27.6519 70.8171 27.6517 70.8159 27.6517 70.8159ZM26.1767 72.5711C26.1762 72.5708 26.1841 72.5703 26.2015 72.5705C26.1858 72.5715 26.1771 72.5714 26.1767 72.5711ZM168.701 33.224C168.693 33.2093 168.69 33.2008 168.69 33.2003C168.69 33.1997 168.694 33.2071 168.701 33.224Z"
          fill="#EAEAEA"
          stroke="#A3A3A3"
          strokeWidth="4"
        />
      </svg>