 <svg
      width="210"
      height="329"
      viewBox="0 0 210 329"
      fill="none"
      xmlns="http://www.w3.org/2000/svg"
    >
      <path
        d="M190.71 322C189.85 324.891 187.171 327 184 327H28C24.829 327 22.1504 324.891 21.2899 322H190.71Z"
        fill="#A9ABAC"
        fillOpacity="0.25"
        stroke="#A3A3A3"
        strokeWidth="4"
      />
      <path
        d="M100.966 50.9997L100.983 51H101H118H118.029L118.059 50.9991L135.059 50.4991L135.086 50.4983L135.114 50.4967L152.614 49.4967L152.722 49.4906L152.829 49.4728L166.776 47.1483C167.588 47.0129 168.259 46.5608 168.694 45.9452L204.982 85.9448C206.924 88.0857 208 90.8727 208 93.7633V305C208 314.941 199.941 323 190 323H20C10.0589 323 2 314.941 2 305V93.3663C2 90.7425 2.9917 88.2156 4.77633 86.2922L41.832 46.3544C42.2763 47.0261 42.9946 47.5195 43.8729 47.645L56.7172 49.4799L56.7918 49.4906L56.867 49.4956L71.867 50.4956L71.9162 50.4989L71.9655 50.4997L100.966 50.9997Z"
        fill="current"
        fillOpacity="0.5"
        stroke="#A3A3A3"
        strokeWidth="4"
      />
      <mask id="path-3-inside-1_70_2079" fill="white">
        <path
          fillRule="evenodd"
          clipRule="evenodd"
          d="M169.73 39.5511C169.909 39.3696 170 39.1858 170 39C170 38.4768 169.275 37.9693 167.912 37.4856C167.444 37.2307 166.92 37.0665 166.363 37.0163C157.49 34.6774 133.367 33 105 33C76.6327 33 52.5096 34.6774 43.6365 37.0163C43.0797 37.0664 42.5557 37.2307 42.0882 37.4856C40.7253 37.9693 40 38.4769 40 39C40 39.1858 40.0915 39.3696 40.2705 39.5511C40.0958 40.0003 40 40.489 40 41V45C40 45.511 40.0958 45.9997 40.2705 46.4489C40.0915 46.6304 40 46.8142 40 47C40 47.5231 40.7253 48.0307 42.0882 48.5144C42.5557 48.7693 43.0797 48.9336 43.6365 48.9837C52.5096 51.3226 76.6327 53 105 53C133.367 53 157.49 51.3226 166.363 48.9837C166.92 48.9336 167.444 48.7693 167.912 48.5144C169.275 48.0307 170 47.5232 170 47C170 46.8142 169.909 46.6304 169.73 46.4489C169.904 45.9997 170 45.511 170 45V41C170 40.489 169.904 40.0003 169.73 39.5511Z"
        />
      </mask>
      <path
        fillRule="evenodd"
        clipRule="evenodd"
        d="M169.73 39.5511C169.909 39.3696 170 39.1858 170 39C170 38.4768 169.275 37.9693 167.912 37.4856C167.444 37.2307 166.92 37.0665 166.363 37.0163C157.49 34.6774 133.367 33 105 33C76.6327 33 52.5096 34.6774 43.6365 37.0163C43.0797 37.0664 42.5557 37.2307 42.0882 37.4856C40.7253 37.9693 40 38.4769 40 39C40 39.1858 40.0915 39.3696 40.2705 39.5511C40.0958 40.0003 40 40.489 40 41V45C40 45.511 40.0958 45.9997 40.2705 46.4489C40.0915 46.6304 40 46.8142 40 47C40 47.5231 40.7253 48.0307 42.0882 48.5144C42.5557 48.7693 43.0797 48.9336 43.6365 48.9837C52.5096 51.3226 76.6327 53 105 53C133.367 53 157.49 51.3226 166.363 48.9837C166.92 48.9336 167.444 48.7693 167.912 48.5144C169.275 48.0307 170 47.5232 170 47C170 46.8142 169.909 46.6304 169.73 46.4489C169.904 45.9997 170 45.511 170 45V41C170 40.489 169.904 40.0003 169.73 39.5511Z"
        fill="current"
        fillOpacity="0.5"
      />
      <path
        d="M169.73 39.5511L166.882 36.742L165.063 38.5862L166.001 41.0005L169.73 39.5511ZM167.912 37.4856L165.997 40.9976L166.275 41.1492L166.574 41.2551L167.912 37.4856ZM166.363 37.0163L165.344 40.8842L165.669 40.97L166.005 41.0002L166.363 37.0163ZM43.6365 37.0163L43.9954 41.0002L44.3306 40.97L44.6561 40.8842L43.6365 37.0163ZM42.0882 37.4856L43.4263 41.2551L43.7247 41.1492L44.0028 40.9976L42.0882 37.4856ZM40.2705 39.5511L43.9986 41.0005L44.9373 38.5861L43.1181 36.742L40.2705 39.5511ZM40.2705 46.4489L43.1181 49.258L44.9373 47.4139L43.9986 44.9995L40.2705 46.4489ZM42.0882 48.5144L44.0028 45.0024L43.7247 44.8508L43.4263 44.7449L42.0882 48.5144ZM43.6365 48.9837L44.6561 45.1158L44.3306 45.03L43.9954 44.9998L43.6365 48.9837ZM166.363 48.9837L166.005 44.9998L165.669 45.03L165.344 45.1158L166.363 48.9837ZM167.912 48.5144L166.574 44.7449L166.275 44.8508L165.997 45.0024L167.912 48.5144ZM169.73 46.4489L166.001 44.9995L165.063 47.4138L166.882 49.258L169.73 46.4489ZM166 39C166 37.7733 166.622 37.0052 166.882 36.742L172.577 42.3601C173.195 41.734 174 40.5983 174 39H166ZM166.574 41.2551C167.114 41.4469 167.228 41.5451 167.133 41.4762C167.075 41.4351 166.831 41.2541 166.579 40.8908C166.305 40.4964 166 39.846 166 39H174C174 36.7603 172.471 35.4612 171.801 34.9798C171.002 34.4055 170.072 34.0079 169.25 33.716L166.574 41.2551ZM169.826 33.9735C168.889 33.4624 167.837 33.1328 166.722 33.0324L166.005 41.0002C166.006 41.0003 166.004 41.0002 166.002 40.9994C165.999 40.9987 165.998 40.9979 165.997 40.9976L169.826 33.9735ZM105 37C119.111 37 132.144 37.4174 142.726 38.1222C153.414 38.8341 161.317 39.8228 165.344 40.8842L167.383 33.1484C162.537 31.8709 153.942 30.8515 143.258 30.1399C132.469 29.4213 119.256 29 105 29V37ZM44.6561 40.8842C48.6827 39.8228 56.5862 38.834 67.2738 38.1222C77.8562 37.4174 90.8887 37 105 37V29C90.744 29 77.5313 29.4213 66.7421 30.1399C56.058 30.8515 47.4634 31.8709 42.617 33.1484L44.6561 40.8842ZM43.2777 33.0324C42.1633 33.1328 41.1112 33.4625 40.1737 33.9735L44.0028 40.9976C44.0022 40.998 44.0006 40.9987 43.9984 40.9994C43.9959 41.0002 43.9945 41.0002 43.9954 41.0002L43.2777 33.0324ZM44 39C44 39.846 43.6947 40.4964 43.4211 40.8908C43.1691 41.2541 42.9246 41.4351 42.8673 41.4762C42.7716 41.5451 42.8859 41.4469 43.4263 41.2551L40.7502 33.716C39.9277 34.008 38.9979 34.4055 38.1987 34.9798C37.5288 35.4612 36 36.7603 36 39H44ZM43.1181 36.742C43.3778 37.0052 44 37.7733 44 39H36C36 40.5983 36.8051 41.734 37.4229 42.3602L43.1181 36.742ZM36.5423 38.1016C36.1909 39.0056 36 39.9853 36 41H44C44 40.9951 44.0004 40.9939 44.0001 40.9955C43.9999 40.9969 43.9993 40.9987 43.9986 41.0005L36.5423 38.1016ZM36 41V45H44V41H36ZM36 45C36 46.0147 36.1909 46.9944 36.5423 47.8984L43.9986 44.9995C43.9993 45.0013 43.9999 45.0031 44.0001 45.0045C44.0004 45.0061 44 45.0049 44 45H36ZM37.4229 43.6398C36.8052 44.266 36 45.4017 36 47H44C44 48.2267 43.3778 48.9948 43.1181 49.258L37.4229 43.6398ZM36 47C36 49.2397 37.5288 50.5388 38.1987 51.0202C38.9979 51.5945 39.9277 51.992 40.7502 52.284L43.4263 44.7449C42.8859 44.5531 42.7716 44.4549 42.8673 44.5238C42.9246 44.5649 43.1691 44.7459 43.4211 45.1092C43.6947 45.5036 44 46.154 44 47H36ZM40.1737 52.0265C41.1112 52.5375 42.1633 52.8672 43.2777 52.9676L43.9954 44.9998C43.9945 44.9998 43.9959 44.9998 43.9984 45.0006C44.0006 45.0013 44.0022 45.002 44.0028 45.0024L40.1737 52.0265ZM42.617 52.8516C47.4634 54.1291 56.058 55.1485 66.7421 55.8601C77.5313 56.5787 90.744 57 105 57V49C90.8887 49 77.8562 48.5826 67.2738 47.8778C56.5862 47.166 48.6827 46.1772 44.6561 45.1158L42.617 52.8516ZM105 57C119.256 57 132.469 56.5787 143.258 55.8601C153.942 55.1485 162.537 54.1291 167.383 52.8516L165.344 45.1158C161.317 46.1772 153.414 47.166 142.726 47.8778C132.144 48.5826 119.111 49 105 49V57ZM166.722 52.9676C167.837 52.8672 168.889 52.5375 169.826 52.0265L165.997 45.0024C165.998 45.002 165.999 45.0013 166.002 45.0006C166.004 44.9998 166.006 44.9998 166.005 44.9998L166.722 52.9676ZM169.25 52.284C170.072 51.992 171.002 51.5945 171.801 51.0202C172.471 50.5388 174 49.2396 174 47H166C166 46.1541 166.305 45.5036 166.579 45.1092C166.831 44.7459 167.075 44.5649 167.133 44.5238C167.228 44.4549 167.114 44.553 166.574 44.7449L169.25 52.284ZM174 47C174 45.4017 173.195 44.266 172.577 43.6399L166.882 49.258C166.622 48.9948 166 48.2267 166 47H174ZM173.458 47.8984C173.809 46.9944 174 46.0147 174 45H166C166 45.005 166 45.0061 166 45.0045C166 45.0031 166.001 45.0013 166.001 44.9995L173.458 47.8984ZM174 45V41H166V45H174ZM174 41C174 39.9853 173.809 39.0056 173.458 38.1016L166.001 41.0005C166.001 40.9987 166 40.9969 166 40.9955C166 40.9939 166 40.995 166 41H174Z"
        fill="#A3A3A3"
        mask="url(#path-3-inside-1_70_2079)"
      />
      <path
        d="M176.653 32.2043C177.414 33.0541 177.54 33.9456 177.541 35.4395C177.522 35.4927 177.407 35.7484 176.824 36.1878C176.059 36.7635 174.806 37.4041 172.999 38.0624C169.408 39.3704 164.1 40.5841 157.404 41.6159C144.043 43.6747 125.515 44.9567 105 44.9567C84.4851 44.9567 65.9564 43.6747 52.5956 41.6159C45.8996 40.5841 40.5912 39.3704 37.0008 38.0624C35.1939 37.4041 33.9404 36.7635 33.1759 36.1878C32.5923 35.7483 32.4771 35.4926 32.4584 35.4395C32.4584 35.3633 32.4583 35.2893 32.4583 35.2173C32.4572 33.558 32.4568 32.9732 32.9309 32.3671C33.4782 31.6675 34.9948 30.6328 39.4844 29.6646C48.3315 27.7566 66.7557 26.4662 105.025 25.9841C141.488 25.5247 159.893 26.8211 169.152 28.953C173.805 30.0244 175.782 31.2319 176.653 32.2043Z"
        fill="#EAEAEA"
        stroke="#A3A3A3"
        strokeWidth="4"
      />
      <mask id="path-6-inside-2_70_2079" fill="white">
        <path d="M30 15C30 12.7909 31.7909 11 34 11L176 11C178.209 11 180 12.7909 180 15V33C180 35.2091 178.209 37 176 37L34 37C31.7909 37 30 35.2091 30 33L30 15Z" />
      </mask>
      <path
        d="M30 15C30 12.7909 31.7909 11 34 11L176 11C178.209 11 180 12.7909 180 15V33C180 35.2091 178.209 37 176 37L34 37C31.7909 37 30 35.2091 30 33L30 15Z"
        fill="#EAEAEA"
      />
      <path
        d="M30 11L180 11L30 11ZM180 37L30 37L180 37ZM34 37C29.5817 37 26 33.4183 26 29V19C26 14.5817 29.5817 11 34 11C34 11 34 12.7909 34 15V33C34 35.2091 34 37 34 37ZM176 11C180.418 11 184 14.5817 184 19V29C184 33.4183 180.418 37 176 37C176 37 176 35.2091 176 33V15C176 12.7909 176 11 176 11Z"
        fill="#A3A3A3"
        mask="url(#path-6-inside-2_70_2079)"
      />
      <path
        d="M178 13.5C178 13.6226 177.937 14.0312 177.155 14.719C176.383 15.3983 175.128 16.1465 173.323 16.9145C169.729 18.4438 164.407 19.8665 157.679 21.0776C144.255 23.4938 125.629 25 105 25C84.3706 25 65.7448 23.4938 52.3213 21.0776C45.5932 19.8665 40.2706 18.4438 36.677 16.9145C34.8722 16.1465 33.6169 15.3983 32.8447 14.719C32.0627 14.0312 32 13.6226 32 13.5C32 13.3774 32.0627 12.9688 32.8447 12.281C33.6169 11.6017 34.8722 10.8535 36.677 10.0855C40.2706 8.55616 45.5932 7.13348 52.3213 5.92243C65.7448 3.50619 84.3706 2 105 2C125.629 2 144.255 3.50619 157.679 5.92243C164.407 7.13348 169.729 8.55616 173.323 10.0855C175.128 10.8535 176.383 11.6017 177.155 12.281C177.937 12.9688 178 13.3774 178 13.5Z"
        fill="#EAEAEA"
        stroke="#A3A3A3"
        strokeWidth="4"
      />
      <path
        d="M176.644 36.0305C175.87 36.5211 174.794 37.0466 173.386 37.5849C169.771 38.9671 164.427 40.265 157.687 41.3763C144.239 43.5939 125.592 45.0121 104.959 45.0121C84.3268 45.0121 65.7015 43.5939 52.2753 41.3764C45.5468 40.2651 40.2136 38.9673 36.6072 37.5854C35.6841 37.2317 34.904 36.8835 34.2586 36.5472C35.3276 36.9195 36.6051 37.3306 38.097 37.7496C47.4615 40.3791 66.3997 43.765 104.959 43.7649C142.59 43.7648 161.54 40.3771 171.147 37.7532C173.507 37.1086 175.294 36.5128 176.644 36.0305ZM32.0083 33.66C32.0084 33.66 32.0082 33.6612 32.008 33.6635C32.0082 33.6611 32.0083 33.66 32.0083 33.66ZM30.1293 34.9736C30.1289 34.9732 30.1366 34.9748 30.1534 34.9794C30.138 34.9763 30.1296 34.974 30.1293 34.9736ZM177.981 33.8551C177.977 33.8389 177.976 33.8299 177.976 33.8294C177.977 33.8289 177.978 33.837 177.981 33.8551Z"
        fill="#EAEAEA"
        stroke="#A3A3A3"
        strokeWidth="4"
      />
    </svg>