<svg width="20" height="20" viewBox="0 0 20 20" fill="none" xmlns="http://www.w3.org/2000/svg">
<path d="M10.0003 11.6667C9.30588 11.6667 8.7156 11.4237 8.22949 10.9376C7.74338 10.4515 7.50033 9.86119 7.50033 9.16675V4.16675C7.50033 3.4723 7.74338 2.88203 8.22949 2.39591C8.7156 1.9098 9.30588 1.66675 10.0003 1.66675C10.6948 1.66675 11.285 1.9098 11.7712 2.39591C12.2573 2.88203 12.5003 3.4723 12.5003 4.16675V9.16675C12.5003 9.86119 12.2573 10.4515 11.7712 10.9376C11.285 11.4237 10.6948 11.6667 10.0003 11.6667ZM9.16699 17.5001V14.9376C7.72255 14.7431 6.5281 14.0973 5.58366 13.0001C4.63921 11.9029 4.16699 10.6251 4.16699 9.16675H5.83366C5.83366 10.3195 6.23991 11.3022 7.05241 12.1147C7.86491 12.9272 8.84755 13.3334 10.0003 13.3334C11.1531 13.3334 12.1357 12.9272 12.9482 12.1147C13.7607 11.3022 14.167 10.3195 14.167 9.16675H15.8337C15.8337 10.6251 15.3614 11.9029 14.417 13.0001C13.4725 14.0973 12.2781 14.7431 10.8337 14.9376V17.5001H9.16699ZM10.0003 10.0001C10.2364 10.0001 10.4344 9.92022 10.5941 9.7605C10.7538 9.60078 10.8337 9.40286 10.8337 9.16675V4.16675C10.8337 3.93064 10.7538 3.73272 10.5941 3.573C10.4344 3.41328 10.2364 3.33341 10.0003 3.33341C9.76421 3.33341 9.5663 3.41328 9.40658 3.573C9.24685 3.73272 9.16699 3.93064 9.16699 4.16675V9.16675C9.16699 9.40286 9.24685 9.60078 9.40658 9.7605C9.5663 9.92022 9.76421 10.0001 10.0003 10.0001Z" fill="white"/>
</svg>
