<svg width="18" height="18" viewBox="0 0 18 18" fill="none" xmlns="http://www.w3.org/2000/svg">
<g clip-path="url(#clip0_504_1293)">
<path d="M8.99998 15.75C8.99998 16.1647 8.66398 16.5 8.24998 16.5H3.74998C1.68223 16.5 -1.56164e-05 14.8177 -1.56164e-05 12.75V3.74998C-1.56164e-05 1.68223 1.68223 -1.56164e-05 3.74998 -1.56164e-05H12.75C14.8177 -1.56164e-05 16.5 1.68223 16.5 3.74998V8.24998C16.5 8.66473 16.164 8.99998 15.75 8.99998C15.336 8.99998 15 8.66473 15 8.24998V3.74998C15 2.50948 13.9905 1.49998 12.75 1.49998H3.74998C2.50948 1.49998 1.49998 2.50948 1.49998 3.74998V8.96923L3.60598 6.86323C4.75498 5.71348 6.62473 5.71348 7.77448 6.86323L11.7802 10.869C12.0735 11.1622 12.0735 11.6362 11.7802 11.9295C11.634 12.0757 11.442 12.1492 11.25 12.1492C11.058 12.1492 10.866 12.0757 10.7197 11.9295L6.71398 7.92373C6.14998 7.36048 5.23198 7.35973 4.66648 7.92373L1.49998 11.0902V12.75C1.49998 13.9905 2.50948 15 3.74998 15H8.24998C8.66398 15 8.99998 15.3352 8.99998 15.75ZM11.25 2.62498C12.4905 2.62498 13.5 3.63448 13.5 4.87498C13.5 6.11548 12.4905 7.12498 11.25 7.12498C10.0095 7.12498 8.99998 6.11548 8.99998 4.87498C8.99998 3.63448 10.0095 2.62498 11.25 2.62498ZM11.25 4.12498C10.8367 4.12498 10.5 4.46098 10.5 4.87498C10.5 5.28898 10.8367 5.62498 11.25 5.62498C11.6632 5.62498 12 5.28898 12 4.87498C12 4.46098 11.6632 4.12498 11.25 4.12498ZM17.25 13.5H15V11.25C15 10.8352 14.664 10.5 14.25 10.5C13.836 10.5 13.5 10.8352 13.5 11.25V13.5H11.25C10.836 13.5 10.5 13.8352 10.5 14.25C10.5 14.6647 10.836 15 11.25 15H13.5V17.25C13.5 17.6647 13.836 18 14.25 18C14.664 18 15 17.6647 15 17.25V15H17.25C17.664 15 18 14.6647 18 14.25C18 13.8352 17.664 13.5 17.25 13.5Z" fill="#8DB6CC"/>
</g>
<defs>
<clipPath id="clip0_504_1293">
<rect width="18" height="18" fill="white"/>
</clipPath>
</defs>
</svg>
