<svg width="20" height="20" viewBox="0 0 20 20" fill="none" xmlns="http://www.w3.org/2000/svg">
<g clip-path="url(#clip0_196_1270)">
<path d="M9.99998 16.75C9.99998 17.1647 9.66398 17.5 9.24998 17.5H4.74998C2.68223 17.5 0.999984 15.8177 0.999984 13.75V4.74998C0.999984 2.68223 2.68223 0.999984 4.74998 0.999984H13.75C15.8177 0.999984 17.5 2.68223 17.5 4.74998V9.24998C17.5 9.66473 17.164 9.99998 16.75 9.99998C16.336 9.99998 16 9.66473 16 9.24998V4.74998C16 3.50948 14.9905 2.49998 13.75 2.49998H4.74998C3.50948 2.49998 2.49998 3.50948 2.49998 4.74998V9.96923L4.60598 7.86323C5.75498 6.71348 7.62473 6.71348 8.77448 7.86323L12.7802 11.869C13.0735 12.1622 13.0735 12.6362 12.7802 12.9295C12.634 13.0757 12.442 13.1492 12.25 13.1492C12.058 13.1492 11.866 13.0757 11.7197 12.9295L7.71398 8.92373C7.14998 8.36048 6.23198 8.35973 5.66648 8.92373L2.49998 12.0902V13.75C2.49998 14.9905 3.50948 16 4.74998 16H9.24998C9.66398 16 9.99998 16.3352 9.99998 16.75ZM12.25 3.62498C13.4905 3.62498 14.5 4.63448 14.5 5.87498C14.5 7.11548 13.4905 8.12498 12.25 8.12498C11.0095 8.12498 9.99998 7.11548 9.99998 5.87498C9.99998 4.63448 11.0095 3.62498 12.25 3.62498ZM12.25 5.12498C11.8367 5.12498 11.5 5.46098 11.5 5.87498C11.5 6.28898 11.8367 6.62498 12.25 6.62498C12.6632 6.62498 13 6.28898 13 5.87498C13 5.46098 12.6632 5.12498 12.25 5.12498ZM18.25 14.5H16V12.25C16 11.8352 15.664 11.5 15.25 11.5C14.836 11.5 14.5 11.8352 14.5 12.25V14.5H12.25C11.836 14.5 11.5 14.8352 11.5 15.25C11.5 15.6647 11.836 16 12.25 16H14.5V18.25C14.5 18.6647 14.836 19 15.25 19C15.664 19 16 18.6647 16 18.25V16H18.25C18.664 16 19 15.6647 19 15.25C19 14.8352 18.664 14.5 18.25 14.5Z" fill="white"/>
</g>
<defs>
<clipPath id="clip0_196_1270">
<rect width="18" height="18" fill="white" transform="translate(1 1)"/>
</clipPath>
</defs>
</svg>
