<svg width="210" height="330" viewBox="0 0 210 330" fill="none" xmlns="http://www.w3.org/2000/svg">
<path d="M190.71 323C189.85 325.891 187.171 328 184 328H28C24.829 328 22.1504 325.891 21.2899 323H190.71Z" fill="#A9ABAC" fill-opacity="0.25" stroke="#A3A3A3" stroke-width="4"/>
<path d="M49.5809 48.9554L49.6658 48.9735L49.7519 48.9843L57.7519 49.9843L57.7992 49.9902L57.8466 49.9939L70.8466 50.9939L70.891 50.9973L70.9355 50.9987L86.4355 51.4987L101.936 51.9987L101.983 52.0003L102.031 51.9995L134.531 51.4995L134.599 51.4985L134.666 51.4928L152.666 49.9928L152.748 49.986L152.829 49.9725L166.904 47.6267C167.555 47.5182 168.11 47.1964 168.516 46.7489L205.211 87.1972C207.006 89.1755 208 91.7509 208 94.4219V305.999C208 315.94 199.941 323.999 190 323.999H20C10.0589 323.999 2 315.94 2 305.999V93.5553C2 91.4526 2.79473 89.4277 4.22489 87.8863L42.1623 46.9982C42.498 47.3029 42.9176 47.5275 43.4002 47.6309L49.5809 48.9554Z" stroke="#A3A3A3" stroke-width="4"/>
<mask id="path-3-inside-1_77_634" fill="white">
<path fill-rule="evenodd" clip-rule="evenodd" d="M169.73 40.5511C169.909 40.3696 170 40.1858 170 40C170 39.4768 169.275 38.9693 167.912 38.4856C167.444 38.2307 166.92 38.0665 166.363 38.0163C157.49 35.6774 133.367 34 105 34C76.6327 34 52.5096 35.6774 43.6365 38.0163C43.0797 38.0664 42.5557 38.2307 42.0882 38.4856C40.7253 38.9693 40 39.4769 40 40C40 40.1858 40.0915 40.3696 40.2705 40.5511C40.0958 41.0003 40 41.489 40 42V46C40 46.511 40.0958 46.9997 40.2705 47.4489C40.0915 47.6304 40 47.8142 40 48C40 48.5231 40.7253 49.0307 42.0882 49.5144C42.5557 49.7693 43.0797 49.9336 43.6365 49.9837C52.5096 52.3226 76.6327 54 105 54C133.367 54 157.49 52.3226 166.363 49.9837C166.92 49.9336 167.444 49.7693 167.912 49.5144C169.275 49.0307 170 48.5232 170 48C170 47.8142 169.909 47.6304 169.73 47.4489C169.904 46.9997 170 46.511 170 46V42C170 41.489 169.904 41.0003 169.73 40.5511Z"/>
</mask>
<path d="M169.73 40.5511L166.882 37.742L165.063 39.5862L166.001 42.0005L169.73 40.5511ZM167.912 38.4856L165.997 41.9976L166.275 42.1492L166.574 42.2551L167.912 38.4856ZM166.363 38.0163L165.344 41.8842L165.669 41.97L166.005 42.0002L166.363 38.0163ZM43.6365 38.0163L43.9954 42.0002L44.3306 41.97L44.6561 41.8842L43.6365 38.0163ZM42.0882 38.4856L43.4263 42.2551L43.7247 42.1492L44.0028 41.9976L42.0882 38.4856ZM40.2705 40.5511L43.9986 42.0005L44.9373 39.5861L43.1181 37.742L40.2705 40.5511ZM40.2705 47.4489L43.1181 50.258L44.9373 48.4139L43.9986 45.9995L40.2705 47.4489ZM42.0882 49.5144L44.0028 46.0024L43.7247 45.8508L43.4263 45.7449L42.0882 49.5144ZM43.6365 49.9837L44.6561 46.1158L44.3306 46.03L43.9954 45.9998L43.6365 49.9837ZM166.363 49.9837L166.005 45.9998L165.669 46.03L165.344 46.1158L166.363 49.9837ZM167.912 49.5144L166.574 45.7449L166.275 45.8508L165.997 46.0024L167.912 49.5144ZM169.73 47.4489L166.001 45.9995L165.063 48.4138L166.882 50.258L169.73 47.4489ZM166 40C166 38.7733 166.622 38.0052 166.882 37.742L172.577 43.3601C173.195 42.734 174 41.5983 174 40H166ZM166.574 42.2551C167.114 42.4469 167.228 42.5451 167.133 42.4762C167.075 42.4351 166.831 42.2541 166.579 41.8908C166.305 41.4964 166 40.846 166 40H174C174 37.7603 172.471 36.4612 171.801 35.9798C171.002 35.4055 170.072 35.0079 169.25 34.716L166.574 42.2551ZM169.826 34.9735C168.889 34.4624 167.837 34.1328 166.722 34.0324L166.005 42.0002C166.006 42.0003 166.004 42.0002 166.002 41.9994C165.999 41.9987 165.998 41.9979 165.997 41.9976L169.826 34.9735ZM105 38C119.111 38 132.144 38.4174 142.726 39.1222C153.414 39.8341 161.317 40.8228 165.344 41.8842L167.383 34.1484C162.537 32.8709 153.942 31.8515 143.258 31.1399C132.469 30.4213 119.256 30 105 30V38ZM44.6561 41.8842C48.6827 40.8228 56.5862 39.834 67.2738 39.1222C77.8562 38.4174 90.8887 38 105 38V30C90.744 30 77.5313 30.4213 66.7421 31.1399C56.058 31.8515 47.4634 32.8709 42.617 34.1484L44.6561 41.8842ZM43.2777 34.0324C42.1633 34.1328 41.1112 34.4625 40.1737 34.9735L44.0028 41.9976C44.0022 41.998 44.0006 41.9987 43.9984 41.9994C43.9959 42.0002 43.9945 42.0002 43.9954 42.0002L43.2777 34.0324ZM44 40C44 40.846 43.6947 41.4964 43.4211 41.8908C43.1691 42.2541 42.9246 42.4351 42.8673 42.4762C42.7716 42.5451 42.8859 42.4469 43.4263 42.2551L40.7502 34.716C39.9277 35.008 38.9979 35.4055 38.1987 35.9798C37.5288 36.4612 36 37.7603 36 40H44ZM43.1181 37.742C43.3778 38.0052 44 38.7733 44 40H36C36 41.5983 36.8051 42.734 37.4229 43.3602L43.1181 37.742ZM36.5423 39.1016C36.1909 40.0056 36 40.9853 36 42H44C44 41.9951 44.0004 41.9939 44.0001 41.9955C43.9999 41.9969 43.9993 41.9987 43.9986 42.0005L36.5423 39.1016ZM36 42V46H44V42H36ZM36 46C36 47.0147 36.1909 47.9944 36.5423 48.8984L43.9986 45.9995C43.9993 46.0013 43.9999 46.0031 44.0001 46.0045C44.0004 46.0061 44 46.0049 44 46H36ZM37.4229 44.6398C36.8052 45.266 36 46.4017 36 48H44C44 49.2267 43.3778 49.9948 43.1181 50.258L37.4229 44.6398ZM36 48C36 50.2397 37.5288 51.5388 38.1987 52.0202C38.9979 52.5945 39.9277 52.992 40.7502 53.284L43.4263 45.7449C42.8859 45.5531 42.7716 45.4549 42.8673 45.5238C42.9246 45.5649 43.1691 45.7459 43.4211 46.1092C43.6947 46.5036 44 47.154 44 48H36ZM40.1737 53.0265C41.1112 53.5375 42.1633 53.8672 43.2777 53.9676L43.9954 45.9998C43.9945 45.9998 43.9959 45.9998 43.9984 46.0006C44.0006 46.0013 44.0022 46.002 44.0028 46.0024L40.1737 53.0265ZM42.617 53.8516C47.4634 55.1291 56.058 56.1485 66.7421 56.8601C77.5313 57.5787 90.744 58 105 58V50C90.8887 50 77.8562 49.5826 67.2738 48.8778C56.5862 48.166 48.6827 47.1772 44.6561 46.1158L42.617 53.8516ZM105 58C119.256 58 132.469 57.5787 143.258 56.8601C153.942 56.1485 162.537 55.1291 167.383 53.8516L165.344 46.1158C161.317 47.1772 153.414 48.166 142.726 48.8778C132.144 49.5826 119.111 50 105 50V58ZM166.722 53.9676C167.837 53.8672 168.889 53.5375 169.826 53.0265L165.997 46.0024C165.998 46.002 165.999 46.0013 166.002 46.0006C166.004 45.9998 166.006 45.9998 166.005 45.9998L166.722 53.9676ZM169.25 53.284C170.072 52.992 171.002 52.5945 171.801 52.0202C172.471 51.5388 174 50.2396 174 48H166C166 47.1541 166.305 46.5036 166.579 46.1092C166.831 45.7459 167.075 45.5649 167.133 45.5238C167.228 45.4549 167.114 45.553 166.574 45.7449L169.25 53.284ZM174 48C174 46.4017 173.195 45.266 172.577 44.6399L166.882 50.258C166.622 49.9948 166 49.2267 166 48H174ZM173.458 48.8984C173.809 47.9944 174 47.0147 174 46H166C166 46.005 166 46.0061 166 46.0045C166 46.0031 166.001 46.0013 166.001 45.9995L173.458 48.8984ZM174 46V42H166V46H174ZM174 42C174 40.9853 173.809 40.0056 173.458 39.1016L166.001 42.0005C166.001 41.9987 166 41.9969 166 41.9955C166 41.9939 166 41.995 166 42H174Z" fill="#A3A3A3" mask="url(#path-3-inside-1_77_634)"/>
<path d="M176.653 32.204C177.414 33.0538 177.54 33.9454 177.541 35.4392C177.522 35.4925 177.407 35.7482 176.824 36.1875C176.059 36.7633 174.806 37.4039 172.999 38.0621C169.408 39.3702 164.1 40.5839 157.404 41.6157C144.043 43.6744 125.515 44.9565 105 44.9565C84.4851 44.9565 65.9564 43.6744 52.5956 41.6157C45.8996 40.5839 40.5912 39.3702 37.0008 38.0621C35.1939 37.4039 33.9404 36.7633 33.1759 36.1875C32.5923 35.7481 32.4771 35.4923 32.4584 35.4392C32.4584 35.3631 32.4583 35.2891 32.4583 35.2171C32.4572 33.5577 32.4568 32.9729 32.9309 32.3669C33.4782 31.6672 34.9948 30.6326 39.4844 29.6644C48.3315 27.7564 66.7557 26.466 105.025 25.9838C141.488 25.5244 159.893 26.8208 169.152 28.9528C173.805 30.0242 175.782 31.2317 176.653 32.204Z" fill="#EAEAEA" stroke="#A3A3A3" stroke-width="4"/>
<mask id="path-6-inside-2_77_634" fill="white">
<path d="M30 15C30 12.7909 31.7909 11 34 11L176 11C178.209 11 180 12.7909 180 15V33C180 35.2091 178.209 37 176 37L34 37C31.7909 37 30 35.2091 30 33L30 15Z"/>
</mask>
<path d="M30 15C30 12.7909 31.7909 11 34 11L176 11C178.209 11 180 12.7909 180 15V33C180 35.2091 178.209 37 176 37L34 37C31.7909 37 30 35.2091 30 33L30 15Z" fill="#EAEAEA"/>
<path d="M30 11L180 11L30 11ZM180 37L30 37L180 37ZM34 37C29.5817 37 26 33.4183 26 29V19C26 14.5817 29.5817 11 34 11C34 11 34 12.7909 34 15V33C34 35.2091 34 37 34 37ZM176 11C180.418 11 184 14.5817 184 19V29C184 33.4183 180.418 37 176 37C176 37 176 35.2091 176 33V15C176 12.7909 176 11 176 11Z" fill="#A3A3A3" mask="url(#path-6-inside-2_77_634)"/>
<path d="M178 13.5C178 13.6226 177.937 14.0312 177.155 14.719C176.383 15.3983 175.128 16.1465 173.323 16.9145C169.729 18.4438 164.407 19.8665 157.679 21.0776C144.255 23.4938 125.629 25 105 25C84.3706 25 65.7448 23.4938 52.3213 21.0776C45.5932 19.8665 40.2706 18.4438 36.677 16.9145C34.8722 16.1465 33.6169 15.3983 32.8447 14.719C32.0627 14.0312 32 13.6226 32 13.5C32 13.3774 32.0627 12.9688 32.8447 12.281C33.6169 11.6017 34.8722 10.8535 36.677 10.0855C40.2706 8.55616 45.5932 7.13348 52.3213 5.92243C65.7448 3.50619 84.3706 2 105 2C125.629 2 144.255 3.50619 157.679 5.92243C164.407 7.13348 169.729 8.55616 173.323 10.0855C175.128 10.8535 176.383 11.6017 177.155 12.281C177.937 12.9688 178 13.3774 178 13.5Z" fill="#EAEAEA" stroke="#A3A3A3" stroke-width="4"/>
<path d="M176.644 36.0305C175.87 36.5211 174.794 37.0466 173.386 37.5849C169.771 38.9671 164.427 40.265 157.687 41.3763C144.239 43.5939 125.592 45.0121 104.959 45.0121C84.3268 45.0121 65.7015 43.5939 52.2753 41.3764C45.5468 40.2651 40.2136 38.9673 36.6072 37.5854C35.6841 37.2317 34.904 36.8835 34.2586 36.5472C35.3276 36.9195 36.6051 37.3306 38.097 37.7496C47.4615 40.3791 66.3997 43.765 104.959 43.7649C142.59 43.7648 161.54 40.3771 171.147 37.7532C173.507 37.1086 175.294 36.5128 176.644 36.0305ZM32.0083 33.66C32.0084 33.66 32.0082 33.6612 32.008 33.6635C32.0082 33.6611 32.0083 33.66 32.0083 33.66ZM30.1293 34.9736C30.1289 34.9732 30.1366 34.9748 30.1534 34.9794C30.138 34.9763 30.1296 34.974 30.1293 34.9736ZM177.981 33.8551C177.977 33.8389 177.976 33.8299 177.976 33.8294C177.977 33.8289 177.978 33.837 177.981 33.8551Z" fill="white" stroke="#A3A3A3" stroke-width="4"/>
<g filter="url(#filter0_d_77_634)">
<line x1="89" y1="183" x2="121" y2="183" stroke="#808080" stroke-width="4"/>
</g>
<g filter="url(#filter1_d_77_634)">
<line x1="104.121" y1="199" x2="104.121" y2="167" stroke="#808080" stroke-width="4"/>
</g>
<defs>
<filter id="filter0_d_77_634" x="85" y="181" width="40" height="12" filterUnits="userSpaceOnUse" color-interpolation-filters="sRGB">
<feFlood flood-opacity="0" result="BackgroundImageFix"/>
<feColorMatrix in="SourceAlpha" type="matrix" values="0 0 0 0 0 0 0 0 0 0 0 0 0 0 0 0 0 0 127 0" result="hardAlpha"/>
<feOffset dy="4"/>
<feGaussianBlur stdDeviation="2"/>
<feComposite in2="hardAlpha" operator="out"/>
<feColorMatrix type="matrix" values="0 0 0 0 0 0 0 0 0 0 0 0 0 0 0 0 0 0 0.25 0"/>
<feBlend mode="normal" in2="BackgroundImageFix" result="effect1_dropShadow_77_634"/>
<feBlend mode="normal" in="SourceGraphic" in2="effect1_dropShadow_77_634" result="shape"/>
</filter>
<filter id="filter1_d_77_634" x="98.1211" y="167" width="12" height="40" filterUnits="userSpaceOnUse" color-interpolation-filters="sRGB">
<feFlood flood-opacity="0" result="BackgroundImageFix"/>
<feColorMatrix in="SourceAlpha" type="matrix" values="0 0 0 0 0 0 0 0 0 0 0 0 0 0 0 0 0 0 127 0" result="hardAlpha"/>
<feOffset dy="4"/>
<feGaussianBlur stdDeviation="2"/>
<feComposite in2="hardAlpha" operator="out"/>
<feColorMatrix type="matrix" values="0 0 0 0 0 0 0 0 0 0 0 0 0 0 0 0 0 0 0.25 0"/>
<feBlend mode="normal" in2="BackgroundImageFix" result="effect1_dropShadow_77_634"/>
<feBlend mode="normal" in="SourceGraphic" in2="effect1_dropShadow_77_634" result="shape"/>
</filter>
</defs>
</svg>
